<?xml version="1.0" encoding="utf-8"?>
<!-- Generator: Adobe Illustrator 28.0.0, SVG Export Plug-In . SVG Version: 6.00 Build 0)  -->
<svg version="1.1" id="Layer_2_00000048469285546198673780000018368050353216395145_"
	 xmlns="http://www.w3.org/2000/svg" xmlns:xlink="http://www.w3.org/1999/xlink" x="0px" y="0px" viewBox="0 0 500 500"
	 style="enable-background:new 0 0 500 500;" xml:space="preserve">
<style type="text/css">
	.st0{fill:#FFFFFF;}
</style>
<path class="st0" d="M364.5,132h-229c-37.2,0-67.4,30.2-67.4,67.4v101.2c0,37.2,30.2,67.4,67.4,67.4h228.9
	c37.2,0,67.4-30.2,67.4-67.4V199.4C431.8,162.2,401.7,132,364.5,132z M359,273c0,19.3-15.7,35-35,35H176c-19.3,0-35-15.7-35-35
	v-48.9c0-19.3,15.7-35,35-35h148c19.3,0,35,15.7,35,35V273L359,273z"/>
</svg>
