<?xml version="1.0" encoding="utf-8"?>
<!-- Generator: Adobe Illustrator 27.9.0, SVG Export Plug-In . SVG Version: 6.00 Build 0)  -->
<svg version="1.1" id="Layer_2_00000057855435303224187750000009686052281420832165_"
	 xmlns="http://www.w3.org/2000/svg" xmlns:xlink="http://www.w3.org/1999/xlink" x="0px" y="0px" viewBox="0 0 481 96.3"
	 style="enable-background:new 0 0 481 96.3;" xml:space="preserve">
<style type="text/css">
	.st0{fill:#FFFFFF;}
</style>
<path class="st0" d="M6.7,96.3V24.7L0,20.6V8.8l23.8-6.5h18.8v14.3l1.3-1.7c0.9-1.2,2.2-2.6,3.9-4.2c1.7-1.6,3.7-3.2,5.8-4.8
	c2.1-1.6,4.7-3,7.7-4.1c3-1.1,5.9-1.7,8.8-1.7c10.1,0,17.3,2.8,21.4,8.3s6.3,14.8,6.3,27.8v2c-0.1,0.9-0.1,1.6-0.1,2.1v56.2H61.2V37
	c0.2-6.9-2.7-10.4-8.9-10.4c-0.4,0-0.9,0-1.3,0.1c-0.4,0.1-0.8,0.1-1.1,0.2c-0.3,0.1-0.7,0.2-1.1,0.4c-0.4,0.2-0.8,0.3-1,0.4
	c-0.3,0.1-0.6,0.3-1,0.5c-0.4,0.3-0.7,0.5-0.9,0.6c-0.2,0.1-0.5,0.4-0.9,0.7c-0.4,0.3-0.7,0.6-0.9,0.7s-0.5,0.4-0.9,0.7
	s-0.7,0.6-0.8,0.7v64.6L6.7,96.3L6.7,96.3z"/>
<path class="st0" d="M263.2,96.3V24.7l-6.6-4.1V8.1l23.8-5.9h9l3.2,26.4c3-18.1,12.7-27.1,29.1-27.1c1.8,0,3.8,0.3,5.8,1l-3.8,39.4
	c-1.5-1.4-5-2.1-10.2-2.1c-7.5,0-12.4,2-14.5,6v50.6L263.2,96.3L263.2,96.3L263.2,96.3z"/>
<path class="st0" d="M336,96.3V24.7l-6.6-4.1V8.8l23.8-6.5H372v14.3c0.4-0.5,0.9-1.2,1.6-2.1c0.7-0.9,2-2.2,3.9-4
	c1.9-1.8,3.9-3.5,5.9-4.9c2-1.4,4.5-2.7,7.4-3.8c2.9-1.1,5.8-1.7,8.7-1.7c7.4,0,13,1.4,16.9,4.2s6.7,7.4,8.3,13.7
	c2.5-4.4,6.4-8.4,11.6-12.2c5.2-3.8,11-5.7,17.2-5.7c6.9,0,12.4,1.2,16.2,3.6c3.9,2.4,6.7,6.5,8.5,12.2s2.7,13.9,2.7,24.4v56.2h-36
	V37c0-3.2-0.8-5.8-2.3-7.6s-3.9-2.8-7.1-2.8c-2.1,0-5.1,1.8-8.8,5.3c0.2,3.5,0.3,7.4,0.3,11.5v52.9h-36.5V37
	c0.2-6.9-2.7-10.4-8.9-10.4c-0.4,0-0.9,0-1.3,0.1c-0.4,0.1-0.8,0.1-1.1,0.2c-0.3,0.1-0.7,0.2-1.1,0.4c-0.4,0.2-0.8,0.3-1,0.4
	c-0.3,0.1-0.6,0.3-1,0.5c-0.4,0.3-0.7,0.5-0.9,0.6c-0.2,0.1-0.5,0.4-0.9,0.7c-0.4,0.3-0.7,0.6-0.9,0.7s-0.5,0.4-0.9,0.7
	s-0.7,0.6-0.8,0.7v64.6H336L336,96.3L336,96.3z"/>
<path class="st0" d="M224.6,1.4h-92.1c-15,0-27.1,12.1-27.1,27.1v40.7c0,15,12.1,27.1,27.1,27.1h92.1c15,0,27.1-12.1,27.1-27.1V28.5
	C251.7,13.6,239.5,1.4,224.6,1.4z M222.4,58.2c0,7.8-6.3,14.1-14.1,14.1h-59.5c-7.8,0-14.1-6.3-14.1-14.1V38.5
	c0-7.8,6.3-14.1,14.1-14.1h59.5c7.8,0,14.1,6.3,14.1,14.1C222.4,38.5,222.4,58.2,222.4,58.2z"/>
</svg>
